<svg width="256" height="256" viewBox="0 0 256 256" fill="none" xmlns="http://www.w3.org/2000/svg">
    <rect width="256" height="256" rx="32" fill="#09090B" />
    <path fill-rule="evenodd" clip-rule="evenodd"
        d="M81.2819 65.6079C75.6136 65.6079 70.577 67.1128 66.3062 70.0378C62.1383 72.8923 59.2061 76.7497 57.0642 80.7072C53.0563 88.1124 51.008 97.5328 49.3059 105.361L49.1843 105.92C47.2909 114.621 45.7237 121.55 43.1166 126.448C41.9017 128.73 40.71 130.053 39.6126 130.817C38.6256 131.504 37.2659 132.06 35.0088 132.06C30.0382 132.06 26.0088 136.089 26.0088 141.06C26.0088 146.03 30.0382 150.06 35.0088 150.06C40.6492 150.06 45.6576 148.539 49.8934 145.592C54.0188 142.722 56.9045 138.853 59.0058 134.906C62.8944 127.6 64.9116 118.314 66.5964 110.559L66.7727 109.748C68.6609 101.07 70.2546 94.1523 72.8943 89.2749C74.1242 87.0025 75.3389 85.6683 76.4772 84.8887C77.5126 84.1797 78.9414 83.6079 81.2819 83.6079C82.3873 83.6079 83.2907 83.9195 84.4819 85.2356C85.9232 86.8281 87.4941 89.6581 88.9926 94.1443C92.0083 103.173 93.7071 115.558 95.5555 129.208L95.6073 129.591C97.3616 142.546 99.2774 156.696 102.981 167.601C104.861 173.138 107.455 178.652 111.356 182.895C115.505 187.408 121.088 190.392 128 190.392C134.912 190.392 140.495 187.408 144.644 182.895C148.545 178.652 151.139 173.138 153.019 167.601C156.723 156.696 158.638 142.546 160.393 129.591L160.444 129.208C162.293 115.558 163.992 103.173 167.007 94.1443C168.506 89.6581 170.077 86.8281 171.518 85.2356C172.709 83.9195 173.613 83.6079 174.718 83.6079C177.059 83.6079 178.487 84.1797 179.523 84.8887C180.661 85.6683 181.876 87.0025 183.106 89.2749C185.745 94.1523 187.339 101.07 189.227 109.748L189.404 110.559C191.088 118.314 193.106 127.6 196.994 134.906C199.095 138.853 201.981 142.722 206.107 145.592C210.342 148.539 215.351 150.06 220.991 150.06C225.962 150.06 229.991 146.03 229.991 141.06C229.991 136.089 225.962 132.06 220.991 132.06C218.734 132.06 217.374 131.504 216.387 130.817C215.29 130.053 214.098 128.73 212.883 126.448C210.276 121.55 208.709 114.621 206.816 105.92L206.694 105.361C204.992 97.5328 202.944 88.1124 198.936 80.7072C196.794 76.7497 193.862 72.8923 189.694 70.0378C185.423 67.1128 180.386 65.6079 174.718 65.6079C167.815 65.6079 162.267 68.6334 158.172 73.157C154.328 77.4043 151.78 82.9168 149.935 88.4415C146.342 99.1977 144.456 113.129 142.722 125.945L142.607 126.792C140.761 140.429 139.035 152.804 135.975 161.813C134.456 166.287 132.862 169.115 131.393 170.713C130.174 172.039 129.208 172.392 128 172.392C126.791 172.392 125.826 172.039 124.607 170.713C123.138 169.115 121.544 166.287 120.025 161.813C116.965 152.804 115.239 140.429 113.393 126.792L113.278 125.945C111.544 113.129 109.658 99.1977 106.065 88.4415C104.22 82.9168 101.672 77.4043 97.8276 73.157C93.7334 68.6334 88.1853 65.6079 81.2819 65.6079Z"
        fill="#FAFAFA" />
</svg>